<svg xmlns="http://www.w3.org/2000/svg" version="1.0" width="300mm" height="200mm" viewBox="0 0 300 200"><path fill="none" stroke="DarkBlue" stroke-width="0.1" d="M 0,20 C 4 20.11 11.2 17.74 8.55 21.74 C 5.89 25.74 13.89 25.74 12.55 21.74 C 11.2 17.74 16 19.52 20 20 C 24 20.48 28.59 21.39 27.33 17.39 C 26.07 13.39 34.07 13.39 31.33 17.39 C 28.59 21.39 36 20.62 40 20 C 44 19.38 49.3 21.49 48.08 17.49 C 46.85 13.49 54.85 13.49 52.08 17.49 C 49.3 21.49 56 19.97 60 20 C 64 20.03 70.22 21.49 67.52 17.49 C 64.83 13.49 72.83 13.49 71.52 17.49 C 70.22 21.49 76 20.47 80 20 C 84 19.53 89.78 21.92 87.32 17.92 C 84.87 13.92 92.87 13.92 91.32 17.92 C 89.78 21.92 96 19.92 100 20 C 104 20.08 110.49 18.64 108.48 22.64 C 106.47 26.64 114.47 26.64 112.48 22.64 C 110.49 18.64 116 20.72 120 20 C 124 19.28 129.65 17.4 127.3 21.4 C 124.96 25.4 132.96 25.4 131.3 21.4 C 129.65 17.4 136 20.34 140 20 C 144 19.66 150.38 21.88 148.79 17.88 C 147.2 13.88 155.2 13.88 152.79 17.88 C 150.38 21.88 156 20.38 160 20 C 164 19.62 169.81 22.49 167.98 18.49 C 166.16 14.49 174.16 14.49 171.98 18.49 C 169.81 22.49 176 19.32 180 20 C 184 20.68 190.67 21.47 187.96 17.47 C 185.25 13.47 193.25 13.47 191.96 17.47 C 190.67 21.47 196 19.49 200 20 C 204 20.51 209.44 18.55 207.91 22.55 C 206.38 26.55 214.38 26.55 211.91 22.55 C 209.44 18.55 216 19.24 220 20 C 224 20.76 230.65 18.02 227.85 22.02 C 225.05 26.02 233.05 26.02 231.85 22.02 C 230.65 18.02 236 19.99 240 20 C 244 20.01 248.91 17.5 247.57 21.5 C 246.22 25.5 254.22 25.5 251.57 21.5 C 248.91 17.5 256 19.25 260 20 C 264 20.75 269.77 17.43 267.64 21.43 C 265.51 25.43 273.51 25.43 271.64 21.43 C 269.77 17.43 276 19.68 280 20 C 284 20.32 290.33 22.36 287.63 18.36 C 284.94 14.36 292.94 14.36 291.63 18.36 C 290.33 22.36 296 20.48 300 20 M 0,40 C 4 40.01 11.22 38.33 8.58 42.33 C 5.94 46.33 13.94 46.33 12.58 42.33 C 11.22 38.33 16 39.29 20 40 C 24 40.71 29 38.56 27.59 42.56 C 26.18 46.56 34.18 46.56 31.59 42.56 C 29 38.56 36 39.66 40 40 C 44 40.34 50.31 38.52 48.26 42.52 C 46.21 46.52 54.21 46.52 52.26 42.52 C 50.31 38.52 56 40.67 60 40 C 64 39.33 69.97 38.3 67.36 42.3 C 64.74 46.3 72.74 46.3 71.36 42.3 C 69.97 38.3 76 40.13 80 40 C 84 39.87 90.8 42.17 88.04 38.17 C 85.28 34.17 93.28 34.17 92.04 38.17 C 90.8 42.17 96 39.32 100 40 C 104 40.68 109.14 41.87 107.31 37.87 C 105.49 33.87 113.49 33.87 111.31 37.87 C 109.14 41.87 116 39.67 120 40 C 124 40.33 130.46 38.32 128.67 42.32 C 126.88 46.32 134.88 46.32 132.67 42.32 C 130.46 38.32 136 40.64 140 40 C 144 39.36 150.42 37.44 148.79 41.44 C 147.17 45.44 155.17 45.44 152.79 41.44 C 150.42 37.44 156 40.5 160 40 C 164 39.5 170.49 42.66 167.8 38.66 C 165.12 34.66 173.12 34.66 171.8 38.66 C 170.49 42.66 176 39.59 180 40 C 184 40.41 190.68 38.06 188.62 42.06 C 186.57 46.06 194.57 46.06 192.62 42.06 C 190.68 38.06 196 39.36 200 40 C 204 40.64 209.79 41.84 207.29 37.84 C 204.78 33.84 212.78 33.84 211.29 37.84 C 209.79 41.84 216 40.75 220 40 C 224 39.25 229.79 38.01 228.07 42.01 C 226.36 46.01 234.36 46.01 232.07 42.01 C 229.79 38.01 236 40.72 240 40 C 244 39.28 249.62 41.38 247.95 37.38 C 246.29 33.38 254.29 33.38 251.95 37.38 C 249.62 41.38 256 40.56 260 40 C 264 39.44 270.34 38.7 267.78 42.7 C 265.21 46.7 273.21 46.7 271.78 42.7 C 270.34 38.7 276 40.64 280 40 C 284 39.36 290.76 38.5 288.16 42.5 C 285.56 46.5 293.56 46.5 292.16 42.5 C 290.76 38.5 296 39.52 300 40 M 0,60 C 4 59.39 9.43 57.94 8.15 61.94 C 6.86 65.94 14.86 65.94 12.15 61.94 C 9.43 57.94 16 59.87 20 60 C 24 60.13 30.28 57.59 27.59 61.59 C 24.9 65.59 32.9 65.59 31.59 61.59 C 30.28 57.59 36 60.57 40 60 C 44 59.43 50.54 62.27 48.72 58.27 C 46.9 54.27 54.9 54.27 52.72 58.27 C 50.54 62.27 56 59.99 60 60 C 64 60.01 70.1 57.81 67.4 61.81 C 64.7 65.81 72.7 65.81 71.4 61.81 C 70.1 57.81 76 60.68 80 60 C 84 59.32 90.21 57.76 88.27 61.76 C 86.34 65.76 94.34 65.76 92.27 61.76 C 90.21 57.76 96 59.81 100 60 C 104 60.19 110.62 57.65 107.97 61.65 C 105.33 65.65 113.33 65.65 111.97 61.65 C 110.62 57.65 116 59.9 120 60 C 124 60.1 130.36 62.4 128.78 58.4 C 127.2 54.4 135.2 54.4 132.78 58.4 C 130.36 62.4 136 60.6 140 60 C 144 59.4 150.15 58.56 148.49 62.56 C 146.84 66.56 154.84 66.56 152.49 62.56 C 150.15 58.56 156 60.79 160 60 C 164 59.21 169.12 58.34 167.44 62.34 C 165.76 66.34 173.76 66.34 171.44 62.34 C 169.12 58.34 176 59.75 180 60 C 184 60.25 189.99 58.54 188.79 62.54 C 187.58 66.54 195.58 66.54 192.79 62.54 C 189.99 58.54 196 60.52 200 60 C 204 59.48 210.36 57.79 208.14 61.79 C 205.92 65.79 213.92 65.79 212.14 61.79 C 210.36 57.79 216 60.56 220 60 C 224 59.44 228.75 58.12 227.26 62.12 C 225.77 66.12 233.77 66.12 231.26 62.12 C 228.75 58.12 236 59.7 240 60 C 244 60.3 250.31 57.93 247.64 61.93 C 244.98 65.93 252.98 65.93 251.64 61.93 C 250.31 57.93 256 60.4 260 60 C 264 59.6 270.2 62.78 268.34 58.78 C 266.48 54.78 274.48 54.78 272.34 58.78 C 270.2 62.78 276 60.31 280 60 C 284 59.69 289.95 58.54 287.66 62.54 C 285.36 66.54 293.36 66.54 291.66 62.54 C 289.95 58.54 296 59.32 300 60 M 0,80 C 4 79.95 9.04 78.5 7.52 82.5 C 6.01 86.5 14.01 86.5 11.52 82.5 C 9.04 78.5 16 80.61 20 80 C 24 79.39 29.99 77.96 28.04 81.96 C 26.08 85.96 34.08 85.96 32.04 81.96 C 29.99 77.96 36 79.84 40 80 C 44 80.16 49.26 77.82 47.48 81.82 C 45.71 85.82 53.71 85.82 51.48 81.82 C 49.26 77.82 56 80.39 60 80 C 64 79.61 69.9 81.79 67.64 77.79 C 65.39 73.79 73.39 73.79 71.64 77.79 C 69.9 81.79 76 80.5 80 80 C 84 79.5 88.98 78.18 87.29 82.18 C 85.6 86.18 93.6 86.18 91.29 82.18 C 88.98 78.18 96 80.39 100 80 C 104 79.61 109.49 81.29 107.92 77.29 C 106.36 73.29 114.36 73.29 111.92 77.29 C 109.49 81.29 116 80.65 120 80 C 124 79.35 129.5 81.8 128.09 77.8 C 126.69 73.8 134.69 73.8 132.09 77.8 C 129.5 81.8 136 80.55 140 80 C 144 79.45 149.73 77.63 147.43 81.63 C 145.12 85.63 153.12 85.63 151.43 81.63 C 149.73 77.63 156 80.27 160 80 C 164 79.73 169.83 81.53 168.53 77.53 C 167.22 73.53 175.22 73.53 172.53 77.53 C 169.83 81.53 176 80.41 180 80 C 184 79.59 188.61 77.75 187.27 81.75 C 185.92 85.75 193.92 85.75 191.27 81.75 C 188.61 77.75 196 79.74 200 80 C 204 80.26 210.43 81.3 208.1 77.3 C 205.78 73.3 213.78 73.3 212.1 77.3 C 210.43 81.3 216 80.47 220 80 C 224 79.53 229.59 82.7 227.34 78.7 C 225.09 74.7 233.09 74.7 231.34 78.7 C 229.59 82.7 236 79.24 240 80 C 244 80.76 249.98 81.22 247.58 77.22 C 245.19 73.22 253.19 73.22 251.58 77.22 C 249.98 81.22 256 79.38 260 80 C 264 80.62 270.11 77.66 267.59 81.66 C 265.07 85.66 273.07 85.66 271.59 81.66 C 270.11 77.66 276 79.45 280 80 C 284 80.55 290.56 77.96 288.48 81.96 C 286.4 85.96 294.4 85.96 292.48 81.96 C 290.56 77.96 296 79.34 300 80 M 0,100 C 4 100.59 9.85 101.79 7.49 97.79 C 5.14 93.79 13.14 93.79 11.49 97.79 C 9.85 101.79 16 100.67 20 100 C 24 99.33 29.47 101.31 27.91 97.31 C 26.34 93.31 34.34 93.31 31.91 97.31 C 29.47 101.31 36 99.76 40 100 C 44 100.24 49.78 101.74 48.53 97.74 C 47.27 93.74 55.27 93.74 52.53 97.74 C 49.78 101.74 56 99.91 60 100 C 64 100.09 70.59 98.63 68.64 102.63 C 66.68 106.63 74.68 106.63 72.64 102.63 C 70.59 98.63 76 100.67 80 100 C 84 99.33 89.33 97.42 87.65 101.42 C 85.96 105.42 93.96 105.42 91.65 101.42 C 89.33 97.42 96 100.36 100 100 C 104 99.64 109.97 98.65 108.28 102.65 C 106.6 106.65 114.6 106.65 112.28 102.65 C 109.97 98.65 116 99.59 120 100 C 124 100.41 130.8 97.66 128.06 101.66 C 125.33 105.66 133.33 105.66 132.06 101.66 C 130.8 97.66 136 99.65 140 100 C 144 100.35 148.88 101.69 147.41 97.69 C 145.94 93.69 153.94 93.69 151.41 97.69 C 148.88 101.69 156 100.42 160 100 C 164 99.58 170.64 97.51 167.99 101.51 C 165.33 105.51 173.33 105.51 171.99 101.51 C 170.64 97.51 176 100.72 180 100 C 184 99.28 191.07 101.4 188.3 97.4 C 185.54 93.4 193.54 93.4 192.3 97.4 C 191.07 101.4 196 99.57 200 100 C 204 100.43 209.75 102.44 207.58 98.44 C 205.42 94.44 213.42 94.44 211.58 98.44 C 209.75 102.44 216 100.67 220 100 C 224 99.33 229.63 97.67 227.8 101.67 C 225.98 105.67 233.98 105.67 231.8 101.67 C 229.63 97.67 236 100.35 240 100 C 244 99.65 250.32 101.7 247.7 97.7 C 245.09 93.7 253.09 93.7 251.7 97.7 C 250.32 101.7 256 99.93 260 100 C 264 100.07 268.91 101.56 267.5 97.56 C 266.08 93.56 274.08 93.56 271.5 97.56 C 268.91 101.56 276 99.71 280 100 C 284 100.29 290.09 101.8 287.88 97.8 C 285.67 93.8 293.67 93.8 291.88 97.8 C 290.09 101.8 296 100.31 300 100 M 0,120 C 4 120.62 9.45 117.89 8.18 121.89 C 6.91 125.89 14.91 125.89 12.18 121.89 C 9.45 117.89 16 120.74 20 120 C 24 119.26 29.29 117.93 27.72 121.93 C 26.14 125.93 34.14 125.93 31.72 121.93 C 29.29 117.93 36 120.47 40 120 C 44 119.53 50.57 118.03 48.1 122.03 C 45.63 126.03 53.63 126.03 52.1 122.03 C 50.57 118.03 56 119.42 60 120 C 64 120.58 69.99 118.35 68.6 122.35 C 67.21 126.35 75.21 126.35 72.6 122.35 C 69.99 118.35 76 120.03 80 120 C 84 119.97 88.45 121.29 87.24 117.29 C 86.02 113.29 94.02 113.29 91.24 117.29 C 88.45 121.29 96 119.96 100 120 C 104 120.04 110.68 122.45 108.77 118.45 C 106.86 114.45 114.86 114.45 112.77 118.45 C 110.68 122.45 116 120.61 120 120 C 124 119.39 130.05 117.31 128.05 121.31 C 126.04 125.31 134.04 125.31 132.05 121.31 C 130.05 117.31 136 119.83 140 120 C 144 120.17 149.12 117.93 147.92 121.93 C 146.72 125.93 154.72 125.93 151.92 121.93 C 149.12 117.93 156 119.22 160 120 C 164 120.78 171.4 117.58 168.79 121.58 C 166.18 125.58 174.18 125.58 172.79 121.58 C 171.4 117.58 176 119.6 180 120 C 184 120.4 190.18 117.43 188.5 121.43 C 186.83 125.43 194.83 125.43 192.5 121.43 C 190.18 117.43 196 120.56 200 120 C 204 119.44 209.95 118.34 207.33 122.34 C 204.71 126.34 212.71 126.34 211.33 122.34 C 209.95 118.34 216 119.35 220 120 C 224 120.65 230.71 121.49 228.55 117.49 C 226.39 113.49 234.39 113.49 232.55 117.49 C 230.71 121.49 236 119.34 240 120 C 244 120.66 249.49 118.45 248.11 122.45 C 246.72 126.45 254.72 126.45 252.11 122.45 C 249.49 118.45 256 120.37 260 120 C 264 119.63 269.32 118.71 267.21 122.71 C 265.11 126.71 273.11 126.71 271.21 122.71 C 269.32 118.71 276 119.99 280 120 C 284 120.01 290.63 118.62 287.94 122.62 C 285.24 126.62 293.24 126.62 291.94 122.62 C 290.63 118.62 296 120.53 300 120 M 0,140 C 4 140.36 10.46 141.92 8.48 137.92 C 6.51 133.92 14.51 133.92 12.48 137.92 C 10.46 141.92 16 140.56 20 140 C 24 139.44 29.84 142.35 27.45 138.35 C 25.07 134.35 33.07 134.35 31.45 138.35 C 29.84 142.35 36 140.27 40 140 C 44 139.73 49.92 138.56 48.01 142.56 C 46.1 146.56 54.1 146.56 52.01 142.56 C 49.92 138.56 56 140.52 60 140 C 64 139.48 71.36 137.4 68.67 141.4 C 65.98 145.4 73.98 145.4 72.67 141.4 C 71.36 137.4 76 140.49 80 140 C 84 139.51 89.76 142.02 88.14 138.02 C 86.51 134.02 94.51 134.02 92.14 138.02 C 89.76 142.02 96 139.76 100 140 C 104 140.24 109.46 138.6 107.54 142.6 C 105.61 146.6 113.61 146.6 111.54 142.6 C 109.46 138.6 116 140.59 120 140 C 124 139.41 130.09 142.53 128 138.53 C 125.9 134.53 133.9 134.53 132 138.53 C 130.09 142.53 136 140.46 140 140 C 144 139.54 150.17 141.98 148.2 137.98 C 146.24 133.98 154.24 133.98 152.2 137.98 C 150.17 141.98 156 140.79 160 140 C 164 139.21 169.91 137.44 167.93 141.44 C 165.96 145.44 173.96 145.44 171.93 141.44 C 169.91 137.44 176 139.7 180 140 C 184 140.3 191.01 137.48 188.54 141.48 C 186.06 145.48 194.06 145.48 192.54 141.48 C 191.01 137.48 196 140.72 200 140 C 204 139.28 210.76 142.16 208.06 138.16 C 205.36 134.16 213.36 134.16 212.06 138.16 C 210.76 142.16 216 139.55 220 140 C 224 140.45 230.1 142.39 227.77 138.39 C 225.45 134.39 233.45 134.39 231.77 138.39 C 230.1 142.39 236 140.25 240 140 C 244 139.75 249.28 141.53 247.35 137.53 C 245.41 133.53 253.41 133.53 251.35 137.53 C 249.28 141.53 256 139.74 260 140 C 264 140.26 271.31 137.73 268.51 141.73 C 265.71 145.73 273.71 145.73 272.51 141.73 C 271.31 137.73 276 139.86 280 140 C 284 140.14 290.71 142.57 288.72 138.57 C 286.73 134.57 294.73 134.57 292.72 138.57 C 290.71 142.57 296 139.8 300 140 M 0,160 C 4 160.5 9.55 158.13 7.41 162.13 C 5.28 166.13 13.28 166.13 11.41 162.13 C 9.55 158.13 16 159.91 20 160 C 24 160.09 30.73 162.6 28.44 158.6 C 26.14 154.6 34.14 154.6 32.44 158.6 C 30.73 162.6 36 159.45 40 160 C 44 160.55 51.09 157.88 48.63 161.88 C 46.17 165.88 54.17 165.88 52.63 161.88 C 51.09 157.88 56 159.28 60 160 C 64 160.72 70.21 157.55 68.12 161.55 C 66.03 165.55 74.03 165.55 72.12 161.55 C 70.21 157.55 76 159.88 80 160 C 84 160.12 90.48 162.15 88.33 158.15 C 86.18 154.15 94.18 154.15 92.33 158.15 C 90.48 162.15 96 159.23 100 160 C 104 160.77 109.77 161.96 108.56 157.96 C 107.36 153.96 115.36 153.96 112.56 157.96 C 109.77 161.96 116 159.45 120 160 C 124 160.55 129.45 162 128.22 158 C 126.99 154 134.99 154 132.22 158 C 129.45 162 136 159.33 140 160 C 144 160.67 150.12 157.84 148.54 161.84 C 146.96 165.84 154.96 165.84 152.54 161.84 C 150.12 157.84 156 159.67 160 160 C 164 160.33 169.49 162.67 167.3 158.67 C 165.12 154.67 173.12 154.67 171.3 158.67 C 169.49 162.67 176 160.18 180 160 C 184 159.82 189.82 161.29 187.57 157.29 C 185.32 153.29 193.32 153.29 191.57 157.29 C 189.82 161.29 196 160.11 200 160 C 204 159.89 209.72 161.5 207.64 157.5 C 205.57 153.5 213.57 153.5 211.64 157.5 C 209.72 161.5 216 159.21 220 160 C 224 160.79 229.79 157.6 227.21 161.6 C 224.64 165.6 232.64 165.6 231.21 161.6 C 229.79 157.6 236 160.56 240 160 C 244 159.44 249.67 157.84 248.3 161.84 C 246.94 165.84 254.94 165.84 252.3 161.84 C 249.67 157.84 256 160.18 260 160 C 264 159.82 270.05 162.59 267.6 158.59 C 265.15 154.59 273.15 154.59 271.6 158.59 C 270.05 162.59 276 160.67 280 160 C 284 159.33 289.79 157.79 287.78 161.79 C 285.77 165.79 293.77 165.79 291.78 161.79 C 289.79 157.79 296 159.3 300 160 M 0,180 C 4 180.58 9.18 178.53 7.43 182.53 C 5.69 186.53 13.69 186.53 11.43 182.53 C 9.18 178.53 16 179.3 20 180 C 24 180.7 29.97 178.29 28.66 182.29 C 27.35 186.29 35.35 186.29 32.66 182.29 C 29.97 178.29 36 180.77 40 180 C 44 179.23 48.57 177.36 47.28 181.36 C 45.99 185.36 53.99 185.36 51.28 181.36 C 48.57 177.36 56 180.51 60 180 C 64 179.49 70.41 182.78 68.67 178.78 C 66.93 174.78 74.93 174.78 72.67 178.78 C 70.41 182.78 76 179.65 80 180 C 84 180.35 89.59 178.18 87.21 182.18 C 84.82 186.18 92.82 186.18 91.21 182.18 C 89.59 178.18 96 179.42 100 180 C 104 180.58 109.28 177.62 107.9 181.62 C 106.52 185.62 114.52 185.62 111.9 181.62 C 109.28 177.62 116 180.5 120 180 C 124 179.5 129.3 178.14 127.98 182.14 C 126.65 186.14 134.65 186.14 131.98 182.14 C 129.3 178.14 136 179.51 140 180 C 144 180.49 151.05 178.29 148.4 182.29 C 145.76 186.29 153.76 186.29 152.4 182.29 C 151.05 178.29 156 179.96 160 180 C 164 180.04 170.05 177.95 167.99 181.95 C 165.94 185.95 173.94 185.95 171.99 181.95 C 170.05 177.95 176 180.61 180 180 C 184 179.39 189.66 177.44 187.85 181.44 C 186.04 185.44 194.04 185.44 191.85 181.44 C 189.66 177.44 196 180.45 200 180 C 204 179.55 210.15 177.92 207.63 181.92 C 205.11 185.92 213.11 185.92 211.63 181.92 C 210.15 177.92 216 180.68 220 180 C 224 179.32 230.89 182.61 228.41 178.61 C 225.94 174.61 233.94 174.61 232.41 178.61 C 230.89 182.61 236 179.87 240 180 C 244 180.13 249.38 181.81 247.25 177.81 C 245.12 173.81 253.12 173.81 251.25 177.81 C 249.38 181.81 256 179.62 260 180 C 264 180.38 269.85 182.54 267.81 178.54 C 265.76 174.54 273.76 174.54 271.81 178.54 C 269.85 182.54 276 179.55 280 180 C 284 180.45 289.48 178.02 288.18 182.02 C 286.88 186.02 294.88 186.02 292.18 182.02 C 289.48 178.02 296 179.78 300 180 "></path><path fill="none" stroke="DarkRed" stroke-width="0.1" d="M 20,0 C 19.95 4 17.96 9.73 21.96 8.15 C 25.96 6.56 25.96 14.56 21.96 12.15 C 17.96 9.73 19.28 16 20 20 C 20.72 24 18.18 30.21 22.18 28.5 C 26.18 26.8 26.18 34.8 22.18 32.5 C 18.18 30.21 19.3 36 20 40 C 20.7 44 18.1 50.11 22.1 48.74 C 26.1 47.37 26.1 55.37 22.1 52.74 C 18.1 50.11 19.52 56 20 60 C 20.48 64 17.94 69.89 21.94 68.45 C 25.94 67.01 25.94 75.01 21.94 72.45 C 17.94 69.89 19.83 76 20 80 C 20.17 84 22.39 89.71 18.39 87.64 C 14.39 85.58 14.39 93.58 18.39 91.64 C 22.39 89.71 19.21 96 20 100 C 20.79 104 18.6 110.11 22.6 108.18 C 26.6 106.26 26.6 114.26 22.6 112.18 C 18.6 110.11 19.42 116 20 120 C 20.58 124 17.73 130.17 21.73 128.51 C 25.73 126.85 25.73 134.85 21.73 132.51 C 17.73 130.17 20.34 136 20 140 C 19.66 144 18.71 150.83 22.71 148.71 C 26.71 146.59 26.71 154.59 22.71 152.71 C 18.71 150.83 20.04 156 20 160 C 19.96 164 21.77 171.12 17.77 168.67 C 13.77 166.23 13.77 174.23 17.77 172.67 C 21.77 171.12 20.29 176 20 180 C 19.71 184 21.25 189.97 17.25 188.1 C 13.25 186.23 13.25 194.23 17.25 192.1 C 21.25 189.97 20.51 196 20 200 M 40,0 C 40.41 4 41.97 8.87 37.97 7.21 C 33.97 5.55 33.97 13.55 37.97 11.21 C 41.97 8.87 39.44 16 40 20 C 40.56 24 42.8 30.07 38.8 28.41 C 34.8 26.74 34.8 34.74 38.8 32.41 C 42.8 30.07 40.31 36 40 40 C 39.69 44 41.45 49.8 37.45 48.36 C 33.45 46.93 33.45 54.93 37.45 52.36 C 41.45 49.8 39.44 56 40 60 C 40.56 64 41.42 70.37 37.42 68.51 C 33.42 66.65 33.42 74.65 37.42 72.51 C 41.42 70.37 39.26 76 40 80 C 40.74 84 41.82 91 37.82 88.65 C 33.82 86.3 33.82 94.3 37.82 92.65 C 41.82 91 40.14 96 40 100 C 39.86 104 37.28 111.24 41.28 108.71 C 45.28 106.18 45.28 114.18 41.28 112.71 C 37.28 111.24 40.54 116 40 120 C 39.46 124 37.66 129.48 41.66 127.92 C 45.66 126.37 45.66 134.37 41.66 131.92 C 37.66 129.48 40.46 136 40 140 C 39.54 144 38.03 149.43 42.03 148.12 C 46.03 146.82 46.03 154.82 42.03 152.12 C 38.03 149.43 39.46 156 40 160 C 40.54 164 37.39 170.79 41.39 168.44 C 45.39 166.1 45.39 174.1 41.39 172.44 C 37.39 170.79 40.4 176 40 180 C 39.6 184 41.45 188.91 37.45 187.64 C 33.45 186.38 33.45 194.38 37.45 191.64 C 41.45 188.91 40.15 196 40 200 M 60,0 C 60.07 4 62.31 9.29 58.31 7.75 C 54.31 6.2 54.31 14.2 58.31 11.75 C 62.31 9.29 59.73 16 60 20 C 60.27 24 61.31 28.93 57.31 27.42 C 53.31 25.91 53.31 33.91 57.31 31.42 C 61.31 28.93 60.19 36 60 40 C 59.81 44 57.86 50.54 61.86 48.03 C 65.86 45.52 65.86 53.52 61.86 52.03 C 57.86 50.54 59.51 56 60 60 C 60.49 64 61.5 70.13 57.5 68.48 C 53.5 66.83 53.5 74.83 57.5 72.48 C 61.5 70.13 60.02 76 60 80 C 59.98 84 57.53 89.72 61.53 87.57 C 65.53 85.43 65.53 93.43 61.53 91.57 C 57.53 89.72 59.99 96 60 100 C 60.01 104 57.22 110.35 61.22 108.75 C 65.22 107.14 65.22 115.14 61.22 112.75 C 57.22 110.35 60.67 116 60 120 C 59.33 124 57.31 130.32 61.31 128.46 C 65.31 126.6 65.31 134.6 61.31 132.46 C 57.31 130.32 60.03 136 60 140 C 59.97 144 61.63 150.25 57.63 147.77 C 53.63 145.29 53.63 153.29 57.63 151.77 C 61.63 150.25 60.72 156 60 160 C 59.28 164 58.4 169.92 62.4 167.6 C 66.4 165.28 66.4 173.28 62.4 171.6 C 58.4 169.92 60.78 176 60 180 C 59.22 184 61.96 188.47 57.96 187.23 C 53.96 185.98 53.96 193.98 57.96 191.23 C 61.96 188.47 60.55 196 60 200 M 80,0 C 79.9 4 82.3 9.07 78.3 7.21 C 74.3 5.35 74.3 13.35 78.3 11.21 C 82.3 9.07 79.39 16 80 20 C 80.61 24 81.46 29.77 77.46 27.88 C 73.46 25.98 73.46 33.98 77.46 31.88 C 81.46 29.77 79.6 36 80 40 C 80.4 44 82.56 50.67 78.56 48.05 C 74.56 45.43 74.56 53.43 78.56 52.05 C 82.56 50.67 80.26 56 80 60 C 79.74 64 82.32 70.01 78.32 68.09 C 74.32 66.18 74.32 74.18 78.32 72.09 C 82.32 70.01 79.33 76 80 80 C 80.67 84 77.68 90.66 81.68 88.69 C 85.68 86.71 85.68 94.71 81.68 92.69 C 77.68 90.66 80.48 96 80 100 C 79.52 104 82.04 108.94 78.04 107.43 C 74.04 105.92 74.04 113.92 78.04 111.43 C 82.04 108.94 80.37 116 80 120 C 79.63 124 77.48 129.79 81.48 127.87 C 85.48 125.94 85.48 133.94 81.48 131.87 C 77.48 129.79 79.2 136 80 140 C 80.8 144 81.7 150.71 77.7 148.69 C 73.7 146.68 73.7 154.68 77.7 152.69 C 81.7 150.71 80.55 156 80 160 C 79.45 164 81.93 169.39 77.93 167.42 C 73.93 165.45 73.93 173.45 77.93 171.42 C 81.93 169.39 79.45 176 80 180 C 80.55 184 82.25 189.09 78.25 187.69 C 74.25 186.28 74.25 194.28 78.25 191.69 C 82.25 189.09 79.25 196 80 200 M 100,0 C 99.62 4 102.56 11.22 98.56 8.49 C 94.56 5.75 94.56 13.75 98.56 12.49 C 102.56 11.22 100.34 16 100 20 C 99.66 24 102.72 30.98 98.72 28.29 C 94.72 25.59 94.72 33.59 98.72 32.29 C 102.72 30.98 100.27 36 100 40 C 99.73 44 102.2 50.83 98.2 48.26 C 94.2 45.68 94.2 53.68 98.2 52.26 C 102.2 50.83 100.33 56 100 60 C 99.67 64 102.72 70.49 98.72 68.53 C 94.72 66.57 94.72 74.57 98.72 72.53 C 102.72 70.49 99.88 76 100 80 C 100.12 84 97.67 90.03 101.67 87.71 C 105.67 85.38 105.67 93.38 101.67 91.71 C 97.67 90.03 99.86 96 100 100 C 100.14 104 97.75 108.59 101.75 107.28 C 105.75 105.96 105.75 113.96 101.75 111.28 C 97.75 108.59 100.03 116 100 120 C 99.97 124 97.47 130.44 101.47 128.22 C 105.47 125.99 105.47 133.99 101.47 132.22 C 97.47 130.44 99.46 136 100 140 C 100.54 144 102.52 149.57 98.52 148.14 C 94.52 146.72 94.52 154.72 98.52 152.14 C 102.52 149.57 100.4 156 100 160 C 99.6 164 102.49 170.4 98.49 167.9 C 94.49 165.41 94.49 173.41 98.49 171.9 C 102.49 170.4 99.9 176 100 180 C 100.1 184 102.64 189.79 98.64 187.8 C 94.64 185.81 94.64 193.81 98.64 191.8 C 102.64 189.79 99.3 196 100 200 M 120,0 C 119.96 4 117.53 9.42 121.53 8.11 C 125.53 6.81 125.53 14.81 121.53 12.11 C 117.53 9.42 119.79 16 120 20 C 120.21 24 122.57 30.48 118.57 28.51 C 114.57 26.54 114.57 34.54 118.57 32.51 C 122.57 30.48 120.23 36 120 40 C 119.77 44 122 50.14 118 48.29 C 114 46.44 114 54.44 118 52.29 C 122 50.14 120.67 56 120 60 C 119.33 64 118.75 69.9 122.75 67.68 C 126.75 65.47 126.75 73.47 122.75 71.68 C 118.75 69.9 120.64 76 120 80 C 119.36 84 121.38 91.48 117.38 88.79 C 113.38 86.1 113.38 94.1 117.38 92.79 C 121.38 91.48 120.29 96 120 100 C 119.71 104 117.53 110.84 121.53 108.23 C 125.53 105.61 125.53 113.61 121.53 112.23 C 117.53 110.84 120.29 116 120 120 C 119.71 124 122.38 130.04 118.38 127.51 C 114.38 124.99 114.38 132.99 118.38 131.51 C 122.38 130.04 119.25 136 120 140 C 120.75 144 117.63 149.11 121.63 147.57 C 125.63 146.03 125.63 154.03 121.63 151.57 C 117.63 149.11 119.41 156 120 160 C 120.59 164 122.25 171.23 118.25 168.49 C 114.25 165.74 114.25 173.74 118.25 172.49 C 122.25 171.23 119.32 176 120 180 C 120.68 184 122.46 191.07 118.46 188.52 C 114.46 185.97 114.46 193.97 118.46 192.52 C 122.46 191.07 120.56 196 120 200 M 140,0 C 139.74 4 138.09 10.35 142.09 8.08 C 146.09 5.81 146.09 13.81 142.09 12.08 C 138.09 10.35 140.05 16 140 20 C 139.95 24 142.38 30.07 138.38 27.6 C 134.38 25.13 134.38 33.13 138.38 31.6 C 142.38 30.07 139.78 36 140 40 C 140.22 44 137.79 50.9 141.79 48.29 C 145.79 45.68 145.79 53.68 141.79 52.29 C 137.79 50.9 139.48 56 140 60 C 140.52 64 138.12 68.73 142.12 67.25 C 146.12 65.77 146.12 73.77 142.12 71.25 C 138.12 68.73 139.91 76 140 80 C 140.09 84 141.33 91.03 137.33 88.52 C 133.33 86.02 133.33 94.02 137.33 92.52 C 141.33 91.03 139.91 96 140 100 C 140.09 104 141.24 109.42 137.24 107.97 C 133.24 106.51 133.24 114.51 137.24 111.97 C 141.24 109.42 139.37 116 140 120 C 140.63 124 141.36 128.8 137.36 127.5 C 133.36 126.21 133.36 134.21 137.36 131.5 C 141.36 128.8 140.64 136 140 140 C 139.36 144 138.1 149.73 142.1 147.69 C 146.1 145.64 146.1 153.64 142.1 151.69 C 138.1 149.73 139.76 156 140 160 C 140.24 164 137.66 170.9 141.66 168.57 C 145.66 166.24 145.66 174.24 141.66 172.57 C 137.66 170.9 140.18 176 140 180 C 139.82 184 141.62 190.3 137.62 187.88 C 133.62 185.45 133.62 193.45 137.62 191.88 C 141.62 190.3 140.31 196 140 200 M 160,0 C 160.47 4 161.67 9.61 157.67 7.83 C 153.67 6.05 153.67 14.05 157.67 11.83 C 161.67 9.61 160.56 16 160 20 C 159.44 24 158.11 30.66 162.11 28.68 C 166.11 26.7 166.11 34.7 162.11 32.68 C 158.11 30.66 160.38 36 160 40 C 159.62 44 158.03 49.34 162.03 47.91 C 166.03 46.48 166.03 54.48 162.03 51.91 C 158.03 49.34 160.36 56 160 60 C 159.64 64 161.37 70.55 157.37 67.81 C 153.37 65.07 153.37 73.07 157.37 71.81 C 161.37 70.55 160.5 76 160 80 C 159.5 84 158.77 89.87 162.77 88.39 C 166.77 86.91 166.77 94.91 162.77 92.39 C 158.77 89.87 160.47 96 160 100 C 159.53 104 161.33 111.47 157.33 108.69 C 153.33 105.91 153.33 113.91 157.33 112.69 C 161.33 111.47 160.36 116 160 120 C 159.64 124 158.32 130.23 162.32 128.56 C 166.32 126.9 166.32 134.9 162.32 132.56 C 158.32 130.23 160.19 136 160 140 C 159.81 144 157.67 149.77 161.67 147.26 C 165.67 144.75 165.67 152.75 161.67 151.26 C 157.67 149.77 159.62 156 160 160 C 160.38 164 157.62 169.94 161.62 168.21 C 165.62 166.49 165.62 174.49 161.62 172.21 C 157.62 169.94 160.19 176 160 180 C 159.81 184 157.93 189.07 161.93 187.5 C 165.93 185.94 165.93 193.94 161.93 191.5 C 157.93 189.07 159.91 196 160 200 M 180,0 C 180.35 4 178.7 11.17 182.7 8.4 C 186.7 5.63 186.7 13.63 182.7 12.4 C 178.7 11.17 179.9 16 180 20 C 180.1 24 182.79 28.8 178.79 27.2 C 174.79 25.61 174.79 33.61 178.79 31.2 C 182.79 28.8 179.22 36 180 40 C 180.78 44 177.76 50.6 181.76 48.77 C 185.76 46.94 185.76 54.94 181.76 52.77 C 177.76 50.6 179.81 56 180 60 C 180.19 64 181.55 69.53 177.55 67.75 C 173.55 65.98 173.55 73.98 177.55 71.75 C 181.55 69.53 180.53 76 180 80 C 179.47 84 182.66 90.56 178.66 88.54 C 174.66 86.52 174.66 94.52 178.66 92.54 C 182.66 90.56 180.24 96 180 100 C 179.76 104 181.41 111.21 177.41 108.57 C 173.41 105.93 173.41 113.93 177.41 112.57 C 181.41 111.21 179.38 116 180 120 C 180.62 124 178.67 130.17 182.67 127.71 C 186.67 125.25 186.67 133.25 182.67 131.71 C 178.67 130.17 180.13 136 180 140 C 179.87 144 178 149.15 182 147.6 C 186 146.05 186 154.05 182 151.6 C 178 149.15 180.1 156 180 160 C 179.9 164 181.92 169.12 177.92 167.35 C 173.92 165.57 173.92 173.57 177.92 171.35 C 181.92 169.12 179.85 176 180 180 C 180.15 184 182.73 189.02 178.73 187.35 C 174.73 185.68 174.73 193.68 178.73 191.35 C 182.73 189.02 179.72 196 180 200 M 200,0 C 200.26 4 198.62 11.14 202.62 8.67 C 206.62 6.19 206.62 14.19 202.62 12.67 C 198.62 11.14 199.27 16 200 20 C 200.73 24 198.34 28.7 202.34 27.39 C 206.34 26.07 206.34 34.07 202.34 31.39 C 198.34 28.7 199.41 36 200 40 C 200.59 44 201.63 48.93 197.63 47.43 C 193.63 45.94 193.63 53.94 197.63 51.43 C 201.63 48.93 200.61 56 200 60 C 199.39 64 202.39 70.06 198.39 68.01 C 194.39 65.96 194.39 73.96 198.39 72.01 C 202.39 70.06 199.48 76 200 80 C 200.52 84 201.47 90.11 197.47 88.28 C 193.47 86.44 193.47 94.44 197.47 92.28 C 201.47 90.11 200.47 96 200 100 C 199.53 104 197.95 110.49 201.95 108.59 C 205.95 106.69 205.95 114.69 201.95 112.59 C 197.95 110.49 199.87 116 200 120 C 200.13 124 201.5 130.29 197.5 128.31 C 193.5 126.33 193.5 134.33 197.5 132.31 C 201.5 130.29 200.52 136 200 140 C 199.48 144 202.03 151.13 198.03 148.65 C 194.03 146.17 194.03 154.17 198.03 152.65 C 202.03 151.13 200.34 156 200 160 C 199.66 164 198.44 170.29 202.44 168.75 C 206.44 167.21 206.44 175.21 202.44 172.75 C 198.44 170.29 200.57 176 200 180 C 199.43 184 202.76 189.2 198.76 187.95 C 194.76 186.71 194.76 194.71 198.76 191.95 C 202.76 189.2 199.25 196 200 200 M 220,0 C 220.42 4 218.22 9.13 222.22 7.51 C 226.22 5.9 226.22 13.9 222.22 11.51 C 218.22 9.13 219.44 16 220 20 C 220.56 24 221.38 29.36 217.38 27.98 C 213.38 26.6 213.38 34.6 217.38 31.98 C 221.38 29.36 219.7 36 220 40 C 220.3 44 222.67 48.73 218.67 47.44 C 214.67 46.15 214.67 54.15 218.67 51.44 C 222.67 48.73 220.37 56 220 60 C 219.63 64 217.91 70.4 221.91 67.82 C 225.91 65.23 225.91 73.23 221.91 71.82 C 217.91 70.4 219.72 76 220 80 C 220.28 84 222.55 89.5 218.55 88.29 C 214.55 87.07 214.55 95.07 218.55 92.29 C 222.55 89.5 220.41 96 220 100 C 219.59 104 218.53 110.59 222.53 108.26 C 226.53 105.93 226.53 113.93 222.53 112.26 C 218.53 110.59 220.17 116 220 120 C 219.83 124 221.38 130.09 217.38 128.21 C 213.38 126.33 213.38 134.33 217.38 132.21 C 221.38 130.09 220.58 136 220 140 C 219.42 144 218.18 149.15 222.18 147.58 C 226.18 146.01 226.18 154.01 222.18 151.58 C 218.18 149.15 220.29 156 220 160 C 219.71 164 221.84 170.99 217.84 168.58 C 213.84 166.18 213.84 174.18 217.84 172.58 C 221.84 170.99 219.57 176 220 180 C 220.43 184 222.78 190.36 218.78 187.93 C 214.78 185.5 214.78 193.5 218.78 191.93 C 222.78 190.36 220.56 196 220 200 M 240,0 C 239.7 4 242.06 9.71 238.06 8.21 C 234.06 6.72 234.06 14.72 238.06 12.21 C 242.06 9.71 239.59 16 240 20 C 240.41 24 237.64 30.34 241.64 27.71 C 245.64 25.07 245.64 33.07 241.64 31.71 C 237.64 30.34 239.94 36 240 40 C 240.06 44 237.62 51.25 241.62 48.49 C 245.62 45.72 245.62 53.72 241.62 52.49 C 237.62 51.25 240.11 56 240 60 C 239.89 64 238.18 70.32 242.18 67.87 C 246.18 65.42 246.18 73.42 242.18 71.87 C 238.18 70.32 240.67 76 240 80 C 239.33 84 238.63 90.61 242.63 88.03 C 246.63 85.45 246.63 93.45 242.63 92.03 C 238.63 90.61 240.2 96 240 100 C 239.8 104 237.55 110.29 241.55 108.26 C 245.55 106.22 245.55 114.22 241.55 112.26 C 237.55 110.29 239.59 116 240 120 C 240.41 124 242.05 130.45 238.05 128.26 C 234.05 126.07 234.05 134.07 238.05 132.26 C 242.05 130.45 239.82 136 240 140 C 240.18 144 241.85 149 237.85 147.71 C 233.85 146.42 233.85 154.42 237.85 151.71 C 241.85 149 239.38 156 240 160 C 240.62 164 242.28 170.11 238.28 167.38 C 234.28 164.66 234.28 172.66 238.28 171.38 C 242.28 170.11 239.89 176 240 180 C 240.11 184 237.25 190.03 241.25 188 C 245.25 185.98 245.25 193.98 241.25 192 C 237.25 190.03 239.76 196 240 200 M 260,0 C 259.31 4 261.88 11.05 257.88 8.32 C 253.88 5.59 253.88 13.59 257.88 12.32 C 261.88 11.05 260.41 16 260 20 C 259.59 24 262.69 30.07 258.69 27.65 C 254.69 25.24 254.69 33.24 258.69 31.65 C 262.69 30.07 259.35 36 260 40 C 260.65 44 262.58 50.49 258.58 47.82 C 254.58 45.15 254.58 53.15 258.58 51.82 C 262.58 50.49 259.65 56 260 60 C 260.35 64 257.62 69.96 261.62 67.74 C 265.62 65.52 265.62 73.52 261.62 71.74 C 257.62 69.96 260.7 76 260 80 C 259.3 84 257.42 89.52 261.42 87.43 C 265.42 85.33 265.42 93.33 261.42 91.43 C 257.42 89.52 260.39 96 260 100 C 259.61 104 261.31 109.67 257.31 108.3 C 253.31 106.92 253.31 114.92 257.31 112.3 C 261.31 109.67 259.95 116 260 120 C 260.05 124 262.55 130.79 258.55 128.64 C 254.55 126.5 254.55 134.5 258.55 132.64 C 262.55 130.79 260.08 136 260 140 C 259.92 144 262.6 150.49 258.6 148.21 C 254.6 145.92 254.6 153.92 258.6 152.21 C 262.6 150.49 260.4 156 260 160 C 259.6 164 262.29 171.08 258.29 168.68 C 254.29 166.29 254.29 174.29 258.29 172.68 C 262.29 171.08 260.48 176 260 180 C 259.52 184 258.19 189.83 262.19 188.38 C 266.19 186.92 266.19 194.92 262.19 192.38 C 258.19 189.83 260.03 196 260 200 M 280,0 C 279.31 4 282.09 10.37 278.09 8.07 C 274.09 5.78 274.09 13.78 278.09 12.07 C 282.09 10.37 280.75 16 280 20 C 279.25 24 281.94 29.91 277.94 28.16 C 273.94 26.4 273.94 34.4 277.94 32.16 C 281.94 29.91 280.36 36 280 40 C 279.64 44 278.78 49.34 282.78 47.72 C 286.78 46.11 286.78 54.11 282.78 51.72 C 278.78 49.34 279.56 56 280 60 C 280.44 64 282.68 69.49 278.68 67.55 C 274.68 65.61 274.68 73.61 278.68 71.55 C 282.68 69.49 280.03 76 280 80 C 279.97 84 282.24 89.73 278.24 87.29 C 274.24 84.85 274.24 92.85 278.24 91.29 C 282.24 89.73 280.71 96 280 100 C 279.29 104 277.74 110.8 281.74 108.07 C 285.74 105.33 285.74 113.33 281.74 112.07 C 277.74 110.8 280.27 116 280 120 C 279.73 124 282.73 129.93 278.73 128.45 C 274.73 126.97 274.73 134.97 278.73 132.45 C 282.73 129.93 280.64 136 280 140 C 279.36 144 277.71 148.75 281.71 147.46 C 285.71 146.17 285.71 154.17 281.71 151.46 C 277.71 148.75 280.76 156 280 160 C 279.24 164 281.53 170.32 277.53 168.41 C 273.53 166.49 273.53 174.49 277.53 172.41 C 281.53 170.32 280.28 176 280 180 C 279.72 184 278.35 190.77 282.35 188.59 C 286.35 186.41 286.35 194.41 282.35 192.59 C 278.35 190.77 279.33 196 280 200 "></path><path fill="none" stroke="Black" stroke-width="0.1" d="M 2 0 L 298 0 A 2 2 0 0 1 300 2 L 300 198 A 2 2 0 0 1 298 200 L 2 200 A 2 2 0 0 1 0 198 L 0 2 A 2 2 0 0 1 2 0 "></path></svg>